<?xml version="1.0" encoding="UTF-8"?>
<svg width="818px" height="341px" viewBox="0 0 818 341" version="1.1" xmlns="http://www.w3.org/2000/svg" xmlns:xlink="http://www.w3.org/1999/xlink">
    <!-- Generator: Sketch 41.1 (35376) - http://www.bohemiancoding.com/sketch -->
    <title>Building A Brand</title>
    <desc>Created with Sketch.</desc>
    <defs></defs>
    <g id="Page-1" stroke="none" stroke-width="1" fill="none" fill-rule="evenodd">
        <g id="Building-A-Brand">
            <path d="M793.2,325.875 C793.299,323.156 793.366,320.431 793.366,317.687 C793.366,195.216 694.086,95.937 571.616,95.937 C449.146,95.937 349.866,195.216 349.866,317.687 C349.866,320.431 349.934,323.156 350.032,325.875 L793.2,325.875" id="Fill-199" fill="#CDD5D7"></path>
            <path d="M463.808,300.415 L463.808,249.181 L515.042,300.415 L463.808,300.415 Z M438.346,325.875 L576.512,325.875 L438.346,187.709 L438.346,325.875 L438.346,325.875 Z" id="Fill-200" fill="#5EB4E7"></path>
            <polyline id="Fill-201" fill="#FFFFFF" points="438.346 317.415 449.625 317.415 438.346 317.415"></polyline>
            <polygon id="Fill-202" fill="#282D33" points="438.346 319.415 449.625 319.415 449.625 315.415 438.346 315.415"></polygon>
            <polyline id="Fill-203" fill="#FFFFFF" points="438.346 306.419 444.833 306.419 438.346 306.419"></polyline>
            <polygon id="Fill-204" fill="#282D33" points="438.346 308.419 444.833 308.419 444.833 304.419 438.346 304.419"></polygon>
            <polyline id="Fill-205" fill="#FFFFFF" points="438.346 295.422 449.625 295.422 438.346 295.422"></polyline>
            <polygon id="Fill-206" fill="#282D33" points="438.346 297.422 449.625 297.422 449.625 293.422 438.346 293.422"></polygon>
            <polyline id="Fill-207" fill="#FFFFFF" points="438.346 284.425 444.833 284.425 438.346 284.425"></polyline>
            <polygon id="Fill-208" fill="#282D33" points="438.346 286.425 444.833 286.425 444.833 282.425 438.346 282.425"></polygon>
            <polyline id="Fill-209" fill="#FFFFFF" points="438.346 273.428 449.625 273.428 438.346 273.428"></polyline>
            <polygon id="Fill-210" fill="#282D33" points="438.346 275.428 449.625 275.428 449.625 271.428 438.346 271.428"></polygon>
            <polyline id="Fill-211" fill="#FFFFFF" points="438.346 262.431 444.833 262.431 438.346 262.431"></polyline>
            <polygon id="Fill-212" fill="#282D33" points="438.346 264.431 444.833 264.431 444.833 260.431 438.346 260.431"></polygon>
            <polyline id="Fill-213" fill="#FFFFFF" points="438.346 251.435 449.625 251.435 438.346 251.435"></polyline>
            <polygon id="Fill-214" fill="#282D33" points="438.346 253.435 449.625 253.435 449.625 249.435 438.346 249.435"></polygon>
            <polyline id="Fill-215" fill="#FFFFFF" points="438.346 240.437 444.833 240.437 438.346 240.437"></polyline>
            <polygon id="Fill-216" fill="#282D33" points="438.346 242.437 444.833 242.437 444.833 238.437 438.346 238.437"></polygon>
            <polyline id="Fill-217" fill="#FFFFFF" points="438.346 229.44 449.625 229.44 438.346 229.44"></polyline>
            <polygon id="Fill-218" fill="#282D33" points="438.346 231.44 449.625 231.44 449.625 227.44 438.346 227.44"></polygon>
            <polyline id="Fill-219" fill="#FFFFFF" points="438.346 218.444 444.833 218.444 438.346 218.444"></polyline>
            <polygon id="Fill-220" fill="#282D33" points="438.346 220.444 444.833 220.444 444.833 216.444 438.346 216.444"></polygon>
            <polyline id="Fill-221" fill="#FFFFFF" points="438.346 207.448 449.625 207.448 438.346 207.448"></polyline>
            <polygon id="Fill-222" fill="#282D33" points="438.346 209.448 449.625 209.448 449.625 205.448 438.346 205.448"></polygon>
            <path d="M807.186,321.284 L803.188,321.132 C803.213,320.472 803.236,319.81 803.257,319.147 L807.255,319.271 C807.234,319.942 807.211,320.614 807.186,321.284" id="Fill-223" fill="#282D33"></path>
            <path d="M715.848,135.994 C714.807,135.178 713.757,134.371 712.699,133.572 L715.111,130.38 C716.187,131.193 717.254,132.014 718.314,132.844 L715.848,135.994 Z M722.017,140.991 C721.003,140.142 719.982,139.3 718.954,138.467 L721.472,135.359 C722.518,136.206 723.556,137.062 724.587,137.926 L722.017,140.991 Z M728.016,146.193 C727.03,145.31 726.037,144.434 725.037,143.566 L727.66,140.545 C728.676,141.427 729.685,142.317 730.686,143.215 L728.016,146.193 Z M733.833,151.593 C732.88,150.677 731.917,149.769 730.946,148.867 L733.669,145.937 C734.655,146.853 735.634,147.776 736.604,148.708 L733.833,151.593 Z M739.466,157.188 C738.544,156.241 737.613,155.301 736.673,154.368 L739.491,151.528 C740.447,152.477 741.394,153.434 742.333,154.398 L739.466,157.188 Z M744.907,162.973 C744.017,161.994 743.118,161.022 742.211,160.058 L745.125,157.317 C746.048,158.298 746.962,159.287 747.866,160.282 L744.907,162.973 Z M750.146,168.938 C749.29,167.929 748.425,166.927 747.552,165.932 L750.558,163.293 C751.446,164.305 752.325,165.324 753.196,166.352 L750.146,168.938 Z M755.178,175.082 C754.357,174.044 753.527,173.013 752.688,171.989 L755.782,169.454 C756.637,170.496 757.48,171.545 758.315,172.602 L755.178,175.082 Z M759.996,181.396 C759.213,180.331 758.419,179.271 757.615,178.22 L760.795,175.792 C761.612,176.863 762.42,177.941 763.219,179.026 L759.996,181.396 Z M764.592,187.875 C763.845,186.782 763.088,185.695 762.321,184.615 L765.585,182.301 C766.363,183.4 767.134,184.505 767.895,185.617 L764.592,187.875 Z M768.961,194.51 C768.252,193.392 767.534,192.279 766.806,191.173 L770.147,188.974 C770.888,190.1 771.619,191.231 772.34,192.369 L768.961,194.51 Z M773.093,201.295 C772.425,200.152 771.746,199.016 771.057,197.885 L774.473,195.803 C775.174,196.954 775.864,198.111 776.546,199.275 L773.093,201.295 Z M776.985,208.224 C776.357,207.058 775.718,205.896 775.069,204.742 L778.558,202.783 C779.218,203.958 779.867,205.139 780.507,206.327 L776.985,208.224 Z M780.629,215.286 C780.042,214.098 779.444,212.915 778.838,211.737 L782.393,209.904 C783.011,211.102 783.618,212.306 784.215,213.516 L780.629,215.286 Z M784.019,222.475 C783.475,221.266 782.921,220.063 782.355,218.866 L785.973,217.158 C786.548,218.377 787.113,219.602 787.667,220.833 L784.019,222.475 Z M787.149,229.782 C786.649,228.554 786.138,227.331 785.617,226.113 L789.295,224.54 C789.825,225.779 790.345,227.023 790.854,228.272 L787.149,229.782 Z M790.017,237.199 C789.561,235.953 789.095,234.713 788.616,233.478 L792.347,232.034 C792.833,233.292 793.309,234.556 793.772,235.824 L790.017,237.199 Z M792.613,244.714 C792.203,243.453 791.781,242.196 791.349,240.943 L795.13,239.638 C795.57,240.913 796,242.193 796.418,243.477 L792.613,244.714 Z M794.938,252.324 C794.572,251.048 794.197,249.776 793.81,248.509 L797.636,247.34 C798.029,248.63 798.412,249.925 798.783,251.224 L794.938,252.324 Z M796.984,260.013 C796.666,258.724 796.337,257.439 795.996,256.158 L799.861,255.13 C800.208,256.434 800.543,257.742 800.867,259.054 L796.984,260.013 Z M798.75,267.774 C798.479,266.474 798.196,265.178 797.902,263.885 L801.803,262.998 C802.103,264.313 802.39,265.634 802.666,266.958 L798.75,267.774 Z M800.231,275.597 C800.008,274.288 799.772,272.981 799.526,271.678 L803.456,270.934 C803.708,272.26 803.947,273.591 804.175,274.925 L800.231,275.597 Z M801.429,283.472 C801.253,282.153 801.064,280.838 800.866,279.527 L804.821,278.928 C805.023,280.262 805.214,281.6 805.394,282.941 L801.429,283.472 Z M802.34,291.386 C802.213,290.063 802.072,288.742 801.92,287.425 L805.895,286.967 C806.049,288.309 806.191,289.654 806.322,291.002 L802.34,291.386 Z M802.962,299.304 C802.881,297.98 802.789,296.659 802.687,295.341 L806.675,295.031 C806.779,296.371 806.873,297.715 806.954,299.062 L802.962,299.304 Z M803.299,307.238 C803.266,305.912 803.221,304.589 803.165,303.269 L807.161,303.099 C807.219,304.442 807.264,305.789 807.297,307.139 L803.299,307.238 Z M807.349,315.23 L803.349,315.174 C803.36,314.355 803.366,313.536 803.366,312.714 L803.361,311.207 L807.361,311.184 L807.366,312.714 C807.366,313.554 807.36,314.394 807.349,315.23 L807.349,315.23 Z" id="Fill-224" fill="#282D33"></path>
            <path d="M709.57,131.245 C709.037,130.856 708.501,130.468 707.964,130.083 L710.298,126.834 C710.843,127.226 711.387,127.619 711.928,128.013 L709.57,131.245" id="Fill-225" fill="#282D33"></path>
            <polygon id="Fill-226" fill="#FFFFFF" points="652.27 326.382 750.77 326.382 750.77 247.47 652.27 247.47"></polygon>
            <path d="M654.27,324.382 L748.77,324.382 L748.77,249.47 L654.27,249.47 L654.27,324.382 Z M650.27,328.382 L752.77,328.382 L752.77,245.47 L650.27,245.47 L650.27,328.382 Z" id="Fill-227" fill="#282D33"></path>
            <polygon id="Fill-228" fill="#5EB4E7" points="658.27 285.882 744.77 285.882 744.77 260.97 658.27 260.97"></polygon>
            <polygon id="Fill-229" fill="#F9C44F" points="658.27 304.382 684.104 304.382 684.104 290.47 658.27 290.47"></polygon>
            <polyline id="Fill-230" fill="#FFFFFF" points="658.27 309.804 684.104 309.804 658.27 309.804"></polyline>
            <polygon id="Fill-231" fill="#282D33" points="658.27 311.804 684.104 311.804 684.104 307.804 658.27 307.804"></polygon>
            <polyline id="Fill-232" fill="#FFFFFF" points="684.104 317.716 658.27 317.716 684.104 317.716"></polyline>
            <polygon id="Fill-233" fill="#282D33" points="658.27 319.716 684.104 319.716 684.104 315.716 658.27 315.716"></polygon>
            <polyline id="Fill-234" fill="#FFFFFF" points="688.603 309.804 714.437 309.804 688.603 309.804"></polyline>
            <polygon id="Fill-235" fill="#282D33" points="688.603 311.804 714.437 311.804 714.437 307.804 688.603 307.804"></polygon>
            <polygon id="Fill-236" fill="#FFFFFF" points="681.421 275.304 721.619 275.304 721.619 271.304 681.421 271.304"></polygon>
            <polyline id="Fill-237" fill="#FFFFFF" points="714.437 317.716 688.603 317.716 714.437 317.716"></polyline>
            <polygon id="Fill-238" fill="#282D33" points="688.603 319.716 714.437 319.716 714.437 315.716 688.603 315.716"></polygon>
            <polyline id="Fill-239" fill="#FFFFFF" points="718.937 309.804 744.77 309.804 718.937 309.804"></polyline>
            <polygon id="Fill-240" fill="#282D33" points="718.937 311.804 744.77 311.804 744.77 307.804 718.937 307.804"></polygon>
            <polyline id="Fill-241" fill="#FFFFFF" points="744.77 317.716 718.937 317.716 744.77 317.716"></polyline>
            <polygon id="Fill-242" fill="#282D33" points="718.937 319.716 744.77 319.716 744.77 315.716 718.937 315.716"></polygon>
            <polygon id="Fill-243" fill="#F9C44F" points="688.603 304.382 714.437 304.382 714.437 290.47 688.603 290.47"></polygon>
            <polygon id="Fill-244" fill="#F9C44F" points="718.937 304.382 744.77 304.382 744.77 290.47 718.937 290.47"></polygon>
            <polygon id="Fill-245" fill="#FFFFFF" points="652.27 247.47 750.77 247.47 750.77 235.97 652.27 235.97"></polygon>
            <path d="M654.27,245.47 L748.77,245.47 L748.77,237.97 L654.27,237.97 L654.27,245.47 Z M650.27,249.47 L752.77,249.47 L752.77,233.97 L650.27,233.97 L650.27,249.47 Z" id="Fill-246" fill="#282D33"></path>
            <polyline id="Fill-247" fill="#FFFFFF" points="656.77 241.638 660.508 241.638 656.77 241.638"></polyline>
            <polygon id="Fill-248" fill="#282D33" points="656.77 243.638 660.508 243.638 660.508 239.638 656.77 239.638"></polygon>
            <polyline id="Fill-249" fill="#FFFFFF" points="663.241 241.638 666.981 241.638 663.241 241.638"></polyline>
            <polygon id="Fill-250" fill="#282D33" points="663.241 243.638 666.981 243.638 666.981 239.638 663.241 239.638"></polygon>
            <polyline id="Fill-251" fill="#FFFFFF" points="669.713 241.638 673.453 241.638 669.713 241.638"></polyline>
            <polygon id="Fill-252" fill="#282D33" points="669.713 243.638 673.453 243.638 673.453 239.638 669.713 239.638"></polygon>
            <polygon id="Fill-253" fill="#282D33" points="667.029 257.604 700.029 257.604 700.029 253.604 667.029 253.604"></polygon>
            <polygon id="Fill-254" fill="#282D33" points="658.27 257.604 662.359 257.604 662.359 253.604 658.27 253.604"></polygon>
            <path d="M686.408,194.211 L696.997,194.211 C696.997,194.211 711.231,194.187 711.235,194.176 C711.46,194.195 711.687,194.211 711.915,194.211 C716.374,194.211 719.985,190.599 719.985,186.138 C719.985,181.765 716.505,178.211 712.163,178.081 C712.241,177.394 712.295,176.7 712.295,175.994 C712.295,166.26 704.406,158.361 694.667,158.361 C693.015,158.361 691.419,158.605 689.9,159.032 C688.173,146.428 677.37,136.711 664.28,136.711 C649.991,136.711 638.413,148.295 638.413,162.571 C638.413,162.632 638.415,162.688 638.415,162.747 C630.548,163.644 624.434,170.315 624.434,178.424 C624.434,187.14 631.501,194.211 640.221,194.211 L686.408,194.211" id="Fill-255" fill="#FFFFFF"></path>
            <polygon id="Fill-256" fill="#282D33" points="664.755 196.211 679.075 196.211 679.075 192.211 664.755 192.211"></polygon>
            <polygon id="Fill-257" fill="#282D33" points="655.421 233.208 659.421 233.208 659.421 167.875 655.421 167.875"></polygon>
            <polygon id="Fill-258" fill="#282D33" points="677.755 233.208 681.755 233.208 681.755 167.875 677.755 167.875"></polygon>
            <polygon id="Fill-259" fill="#282D33" points="662.755 175.543 680.421 175.543 680.421 171.543 662.755 171.543"></polygon>
            <polygon id="Fill-260" fill="#282D33" points="662.755 185.875 680.421 185.875 680.421 181.875 662.755 181.875"></polygon>
            <polygon id="Fill-261" fill="#282D33" points="662.755 196.209 680.421 196.209 680.421 192.209 662.755 192.209"></polygon>
            <polygon id="Fill-262" fill="#282D33" points="662.755 206.543 680.421 206.543 680.421 202.543 662.755 202.543"></polygon>
            <polygon id="Fill-263" fill="#282D33" points="662.755 216.876 680.421 216.876 680.421 212.876 662.755 212.876"></polygon>
            <polygon id="Fill-264" fill="#282D33" points="662.755 227.211 680.421 227.211 680.421 223.211 662.755 223.211"></polygon>
            <polyline id="Fill-265" fill="#5EB4E7" points="181.95 199.669 162.178 211.085 162.178 188.254 172.064 193.96 181.95 199.669"></polyline>
            <polygon id="Fill-266" fill="#B7BEC0" points="88.634 191.052 101.917 191.052 101.917 177.767 88.634 177.767"></polygon>
            <polygon id="Fill-267" fill="#282D33" points="121.187 184.875 125.187 184.875 125.187 180.875 121.187 180.875"></polygon>
            <path d="M100.816,184.875 L104.211,184.875 L104.211,180.875 L100.816,180.875 L100.816,184.875 Z M107.607,184.875 L111.002,184.875 L111.002,180.875 L107.607,180.875 L107.607,184.875 Z M114.397,184.875 L117.792,184.875 L117.792,180.875 L114.397,180.875 L114.397,184.875 Z" id="Fill-268" fill="#282D33"></path>
            <polygon id="Fill-269" fill="#282D33" points="93.421 184.875 97.421 184.875 97.421 180.875 93.421 180.875"></polygon>
            <path d="M93.421,163.899 L97.421,163.899 L97.421,160.504 L93.421,160.504 L93.421,163.899 Z M93.421,170.689 L97.421,170.689 L97.421,167.294 L93.421,167.294 L93.421,170.689 Z M93.421,177.479 L97.421,177.479 L97.421,174.084 L93.421,174.084 L93.421,177.479 Z" id="Fill-270" fill="#282D33"></path>
            <polygon id="Fill-271" fill="#282D33" points="93.421 157.11 97.421 157.11 97.421 153.11 93.421 153.11"></polygon>
            <path d="M100.815,157.11 L104.21,157.11 L104.21,153.11 L100.815,153.11 L100.815,157.11 Z M107.605,157.11 L111,157.11 L111,153.11 L107.605,153.11 L107.605,157.11 Z M114.396,157.11 L117.791,157.11 L117.791,153.11 L114.396,153.11 L114.396,157.11 Z" id="Fill-272" fill="#282D33"></path>
            <polygon id="Fill-273" fill="#282D33" points="121.187 157.11 125.187 157.11 125.187 153.11 121.187 153.11"></polygon>
            <path d="M121.187,163.9 L125.187,163.9 L125.187,160.505 L121.187,160.505 L121.187,163.9 Z M121.187,170.69 L125.187,170.69 L125.187,167.295 L121.187,167.295 L121.187,170.69 Z M121.187,177.48 L125.187,177.48 L125.187,174.085 L121.187,174.085 L121.187,177.48 Z" id="Fill-274" fill="#282D33"></path>
            <polygon id="Fill-275" fill="#282D33" points="0.421 328.382 174.376 328.382 174.376 324.382 0.421 324.382"></polygon>
            <polygon id="Fill-276" fill="#282D33" points="330.363 340.382 497.36 340.382 497.36 336.382 330.363 336.382"></polygon>
            <polygon id="Fill-277" fill="#282D33" points="404.421 328.382 517.077 328.382 517.077 324.382 404.421 324.382"></polygon>
            <polygon id="Fill-278" fill="#282D33" points="529.461 328.382 550.421 328.382 550.421 324.382 529.461 324.382"></polygon>
            <polygon id="Fill-279" fill="#282D33" points="188.693 340.382 190.693 340.382 190.693 336.382 188.693 336.382"></polygon>
            <path d="M194.587,340.382 L198.48,340.382 L198.48,336.382 L194.587,336.382 L194.587,340.382 Z M202.375,340.382 L206.268,340.382 L206.268,336.382 L202.375,336.382 L202.375,340.382 Z M210.162,340.382 L214.056,340.382 L214.056,336.382 L210.162,336.382 L210.162,340.382 Z M217.95,340.382 L221.843,340.382 L221.843,336.382 L217.95,336.382 L217.95,340.382 Z M225.737,340.382 L229.631,340.382 L229.631,336.382 L225.737,336.382 L225.737,340.382 Z M233.525,340.382 L237.418,340.382 L237.418,336.382 L233.525,336.382 L233.525,340.382 Z M241.313,340.382 L245.206,340.382 L245.206,336.382 L241.313,336.382 L241.313,340.382 Z M249.1,340.382 L252.994,340.382 L252.994,336.382 L249.1,336.382 L249.1,340.382 Z M256.887,340.382 L260.781,340.382 L260.781,336.382 L256.887,336.382 L256.887,340.382 Z M264.675,340.382 L268.569,340.382 L268.569,336.382 L264.675,336.382 L264.675,340.382 Z M272.462,340.382 L276.356,340.382 L276.356,336.382 L272.462,336.382 L272.462,340.382 Z M280.25,340.382 L284.144,340.382 L284.144,336.382 L280.25,336.382 L280.25,340.382 Z M288.038,340.382 L291.932,340.382 L291.932,336.382 L288.038,336.382 L288.038,340.382 Z M295.825,340.382 L299.719,340.382 L299.719,336.382 L295.825,336.382 L295.825,340.382 Z M303.613,340.382 L307.506,340.382 L307.506,336.382 L303.613,336.382 L303.613,340.382 Z" id="Fill-280" fill="#282D33"></path>
            <polygon id="Fill-281" fill="#282D33" points="311.4 340.382 313.4 340.382 313.4 336.382 311.4 336.382"></polygon>
            <polygon id="Fill-282" fill="#282D33" points="474.421 328.382 817.36 328.382 817.36 324.382 474.421 324.382"></polygon>
            <path d="M336.544,64.251 L353.956,64.251 L353.956,46.838 L336.544,46.838 L336.544,64.251 Z M332.544,68.251 L357.956,68.251 L357.956,42.838 L332.544,42.838 L332.544,68.251 Z" id="Fill-283" fill="#282D33"></path>
            <polyline id="Fill-284" fill="#282D33" points="335.958 67.665 333.13 64.837 354.542 43.424 357.37 46.252 335.958 67.665"></polyline>
            <path d="M207.928,128.661 L225.34,128.661 L225.34,111.249 L207.928,111.249 L207.928,128.661 Z M203.928,132.661 L229.34,132.661 L229.34,107.249 L203.928,107.249 L203.928,132.661 Z" id="Fill-285" fill="#282D33"></path>
            <polyline id="Fill-286" fill="#282D33" points="207.342 132.075 204.514 129.247 225.926 107.835 228.754 110.663 207.342 132.075"></polyline>
            <path d="M207.928,150.106 L225.34,150.106 L225.34,132.696 L207.928,132.696 L207.928,150.106 Z M203.928,154.106 L229.34,154.106 L229.34,128.696 L203.928,128.696 L203.928,154.106 Z" id="Fill-287" fill="#282D33"></path>
            <polyline id="Fill-288" fill="#282D33" points="207.342 153.521 204.514 150.692 225.926 129.282 228.754 132.11 207.342 153.521"></polyline>
            <path d="M207.928,171.521 L225.34,171.521 L225.34,154.106 L207.928,154.106 L207.928,171.521 Z M203.928,175.521 L229.34,175.521 L229.34,150.106 L203.928,150.106 L203.928,175.521 Z" id="Fill-289" fill="#282D33"></path>
            <polyline id="Fill-290" fill="#282D33" points="207.342 174.935 204.514 172.106 225.926 150.692 228.754 153.521 207.342 174.935"></polyline>
            <path d="M207.928,192.933 L225.34,192.933 L225.34,175.521 L207.928,175.521 L207.928,192.933 Z M203.928,196.933 L229.34,196.933 L229.34,171.521 L203.928,171.521 L203.928,196.933 Z" id="Fill-291" fill="#282D33"></path>
            <polyline id="Fill-292" fill="#282D33" points="207.342 196.347 204.514 193.519 225.926 172.106 228.754 174.935 207.342 196.347"></polyline>
            <path d="M207.928,42.328 L225.34,42.328 L225.34,24.916 L207.928,24.916 L207.928,42.328 Z M203.928,46.328 L229.34,46.328 L229.34,20.916 L203.928,20.916 L203.928,46.328 Z" id="Fill-293" fill="#282D33"></path>
            <polyline id="Fill-294" fill="#282D33" points="207.342 45.742 204.514 42.914 225.926 21.502 228.754 24.33 207.342 45.742"></polyline>
            <path d="M207.928,86.187 L225.34,86.187 L225.34,68.774 L207.928,68.774 L207.928,86.187 Z M203.928,90.187 L229.34,90.187 L229.34,64.774 L203.928,64.774 L203.928,90.187 Z" id="Fill-295" fill="#282D33"></path>
            <polyline id="Fill-296" fill="#282D33" points="207.342 89.601 204.514 86.772 225.926 65.36 228.754 68.188 207.342 89.601"></polyline>
            <path d="M207.928,107.599 L225.34,107.599 L225.34,90.187 L207.928,90.187 L207.928,107.599 Z M203.928,111.599 L229.34,111.599 L229.34,86.187 L203.928,86.187 L203.928,111.599 Z" id="Fill-297" fill="#282D33"></path>
            <polyline id="Fill-298" fill="#282D33" points="207.342 111.013 204.514 108.185 225.926 86.772 228.754 89.601 207.342 111.013"></polyline>
            <path d="M207.928,214.344 L225.34,214.344 L225.34,196.933 L207.928,196.933 L207.928,214.344 Z M203.928,218.344 L229.34,218.344 L229.34,192.933 L203.928,192.933 L203.928,218.344 Z" id="Fill-299" fill="#282D33"></path>
            <polyline id="Fill-300" fill="#282D33" points="207.342 217.758 204.514 214.93 225.926 193.519 228.754 196.347 207.342 217.758"></polyline>
            <path d="M207.939,235.756 L225.352,235.756 L225.352,218.344 L207.939,218.344 L207.939,235.756 Z M203.939,239.756 L229.352,239.756 L229.352,214.344 L203.939,214.344 L203.939,239.756 Z" id="Fill-301" fill="#282D33"></path>
            <polyline id="Fill-302" fill="#282D33" points="207.354 239.17 204.525 236.342 225.938 214.93 228.766 217.758 207.354 239.17"></polyline>
            <path d="M207.939,257.167 L225.352,257.167 L225.352,239.756 L207.939,239.756 L207.939,257.167 Z M203.939,261.167 L229.352,261.167 L229.352,235.756 L203.939,235.756 L203.939,261.167 Z" id="Fill-303" fill="#282D33"></path>
            <polyline id="Fill-304" fill="#282D33" points="207.354 260.581 204.525 257.753 225.938 236.342 228.766 239.17 207.354 260.581"></polyline>
            <path d="M207.939,279.081 L225.352,279.081 L225.352,261.667 L207.939,261.667 L207.939,279.081 Z M203.939,283.081 L229.352,283.081 L229.352,257.667 L203.939,257.667 L203.939,283.081 Z" id="Fill-305" fill="#282D33"></path>
            <polyline id="Fill-306" fill="#282D33" points="207.354 282.495 204.525 279.667 225.938 258.253 228.766 261.081 207.354 282.495"></polyline>
            <path d="M207.939,300.991 L225.352,300.991 L225.352,283.581 L207.939,283.581 L207.939,300.991 Z M203.939,304.991 L229.352,304.991 L229.352,279.581 L203.939,279.581 L203.939,304.991 Z" id="Fill-307" fill="#282D33"></path>
            <polyline id="Fill-308" fill="#282D33" points="207.354 304.405 204.525 301.577 225.938 280.167 228.766 282.995 207.354 304.405"></polyline>
            <path d="M195.142,279.081 L238.147,279.081 L238.147,261.667 L195.142,261.667 L195.142,279.081 Z M191.142,283.081 L242.147,283.081 L242.147,257.667 L191.142,257.667 L191.142,283.081 Z" id="Fill-309" fill="#282D33"></path>
            <path d="M195.142,300.991 L238.147,300.991 L238.147,283.581 L195.142,283.581 L195.142,300.991 Z M191.142,304.991 L242.147,304.991 L242.147,279.581 L191.142,279.581 L191.142,304.991 Z" id="Fill-310" fill="#282D33"></path>
            <path d="M178.588,324.384 L254.68,324.384 L254.68,316.182 L178.588,316.182 L178.588,324.384 Z M174.588,328.384 L258.68,328.384 L258.68,312.182 L174.588,312.182 L174.588,328.384 Z" id="Fill-311" fill="#282D33"></path>
            <path d="M186.302,312.042 L246.966,312.042 L246.966,305.382 L186.302,305.382 L186.302,312.042 Z M182.302,316.042 L250.966,316.042 L250.966,301.382 L182.302,301.382 L182.302,316.042 Z" id="Fill-312" fill="#282D33"></path>
            <path d="M315.509,64.251 L332.921,64.251 L332.921,46.837 L315.509,46.837 L315.509,64.251 Z M311.509,68.251 L336.921,68.251 L336.921,42.837 L311.509,42.837 L311.509,68.251 Z" id="Fill-313" fill="#282D33"></path>
            <polyline id="Fill-314" fill="#282D33" points="314.923 67.665 312.095 64.837 333.507 43.423 336.335 46.251 314.923 67.665"></polyline>
            <path d="M293.911,64.251 L311.323,64.251 L311.323,46.837 L293.911,46.837 L293.911,64.251 Z M289.911,68.251 L315.323,68.251 L315.323,42.837 L289.911,42.837 L289.911,68.251 Z" id="Fill-315" fill="#282D33"></path>
            <polyline id="Fill-316" fill="#282D33" points="293.325 67.665 290.497 64.837 311.909 43.423 314.737 46.251 293.325 67.665"></polyline>
            <path d="M272.313,64.251 L289.725,64.251 L289.725,46.837 L272.313,46.837 L272.313,64.251 Z M268.313,68.251 L293.725,68.251 L293.725,42.837 L268.313,42.837 L268.313,68.251 Z" id="Fill-317" fill="#282D33"></path>
            <polyline id="Fill-318" fill="#282D33" points="271.727 67.665 268.898 64.837 290.311 43.423 293.139 46.251 271.727 67.665"></polyline>
            <path d="M250.715,64.251 L268.126,64.251 L268.126,46.837 L250.715,46.837 L250.715,64.251 Z M246.715,68.251 L272.126,68.251 L272.126,42.837 L246.715,42.837 L246.715,68.251 Z" id="Fill-319" fill="#282D33"></path>
            <polyline id="Fill-320" fill="#282D33" points="250.129 67.665 247.3 64.837 268.712 43.423 271.541 46.251 250.129 67.665"></polyline>
            <path d="M229.116,64.251 L246.528,64.251 L246.528,46.837 L229.116,46.837 L229.116,64.251 Z M225.116,68.251 L250.528,68.251 L250.528,42.837 L225.116,42.837 L225.116,68.251 Z" id="Fill-321" fill="#282D33"></path>
            <polyline id="Fill-322" fill="#282D33" points="228.53 67.665 225.702 64.837 247.114 43.423 249.942 46.251 228.53 67.665"></polyline>
            <path d="M207.519,64.251 L224.931,64.251 L224.931,46.837 L207.519,46.837 L207.519,64.251 Z M203.519,68.251 L228.931,68.251 L228.931,42.837 L203.519,42.837 L203.519,68.251 Z" id="Fill-323" fill="#282D33"></path>
            <polyline id="Fill-324" fill="#282D33" points="206.933 67.665 204.104 64.837 225.517 43.423 228.345 46.251 206.933 67.665"></polyline>
            <path d="M185.921,64.251 L203.333,64.251 L203.333,46.837 L185.921,46.837 L185.921,64.251 Z M181.921,68.251 L207.333,68.251 L207.333,42.837 L181.921,42.837 L181.921,68.251 Z" id="Fill-325" fill="#282D33"></path>
            <polyline id="Fill-326" fill="#282D33" points="185.335 67.665 182.507 64.837 203.919 43.423 206.747 46.251 185.335 67.665"></polyline>
            <path d="M164.322,64.251 L181.733,64.251 L181.733,46.837 L164.322,46.837 L164.322,64.251 Z M160.322,68.251 L185.733,68.251 L185.733,42.837 L160.322,42.837 L160.322,68.251 Z" id="Fill-327" fill="#282D33"></path>
            <polyline id="Fill-328" fill="#282D33" points="163.736 67.665 160.908 64.837 182.319 43.423 185.148 46.251 163.736 67.665"></polyline>
            <path d="M142.724,64.251 L160.136,64.251 L160.136,46.837 L142.724,46.837 L142.724,64.251 Z M138.724,68.251 L164.136,68.251 L164.136,42.837 L138.724,42.837 L138.724,68.251 Z" id="Fill-329" fill="#282D33"></path>
            <polyline id="Fill-330" fill="#282D33" points="142.138 67.665 139.31 64.837 160.722 43.423 163.55 46.251 142.138 67.665"></polyline>
            <path d="M121.126,64.251 L138.538,64.251 L138.538,46.837 L121.126,46.837 L121.126,64.251 Z M117.126,68.251 L142.538,68.251 L142.538,42.837 L117.126,42.837 L117.126,68.251 Z" id="Fill-331" fill="#282D33"></path>
            <polyline id="Fill-332" fill="#282D33" points="120.54 67.665 117.712 64.837 139.124 43.423 141.952 46.251 120.54 67.665"></polyline>
            <path d="M423.346,64.251 L440.758,64.251 L440.758,46.837 L423.346,46.837 L423.346,64.251 Z M419.346,68.251 L444.758,68.251 L444.758,42.837 L419.346,42.837 L419.346,68.251 Z" id="Fill-333" fill="#282D33"></path>
            <polyline id="Fill-334" fill="#282D33" points="422.76 67.665 419.932 64.837 441.344 43.423 444.172 46.251 422.76 67.665"></polyline>
            <path d="M401.747,64.251 L419.159,64.251 L419.159,46.837 L401.747,46.837 L401.747,64.251 Z M397.747,68.251 L423.159,68.251 L423.159,42.837 L397.747,42.837 L397.747,68.251 Z" id="Fill-335" fill="#282D33"></path>
            <polyline id="Fill-336" fill="#282D33" points="401.161 67.665 398.333 64.837 419.745 43.423 422.573 46.251 401.161 67.665"></polyline>
            <path d="M380.149,64.251 L397.562,64.251 L397.562,46.837 L380.149,46.837 L380.149,64.251 Z M376.149,68.251 L401.562,68.251 L401.562,42.837 L376.149,42.837 L376.149,68.251 Z" id="Fill-337" fill="#282D33"></path>
            <polyline id="Fill-338" fill="#282D33" points="379.563 67.665 376.735 64.837 398.147 43.423 400.976 46.251 379.563 67.665"></polyline>
            <path d="M358.551,64.251 L375.964,64.251 L375.964,46.837 L358.551,46.837 L358.551,64.251 Z M354.551,68.251 L379.964,68.251 L379.964,42.837 L354.551,42.837 L354.551,68.251 Z" id="Fill-339" fill="#282D33"></path>
            <polyline id="Fill-340" fill="#282D33" points="357.965 67.665 355.137 64.837 376.55 43.423 379.378 46.251 357.965 67.665"></polyline>
            <polyline id="Fill-341" fill="#282D33" points="225.387 23.449 216.636 7.205 207.886 23.448 204.364 21.552 214.875 2.039 218.396 2.039 228.908 21.551 225.387 23.449"></polyline>
            <polyline id="Fill-342" fill="#282D33" points="442.394 46.804 216.868 5.064 119.915 46.675 118.337 42.999 216.404 0.911 217 1.021 443.122 42.87 442.394 46.804"></polyline>
            <polyline id="Fill-343" fill="#282D33" points="194.917 259.436 191.108 258.217 204.665 215.883 208.474 217.102 194.917 259.436"></polyline>
            <polyline id="Fill-344" fill="#282D33" points="238.374 259.436 224.817 217.102 228.626 215.883 242.183 258.217 238.374 259.436"></polyline>
            <path d="M121.125,81.255 L138.938,81.255 L138.938,68.46 L121.125,68.46 L121.125,81.255 Z M117.125,85.255 L142.938,85.255 L142.938,64.46 L117.125,64.46 L117.125,85.255 Z" id="Fill-345" fill="#282D33"></path>
            <path d="M121.125,81.255 L138.938,81.255 L138.938,77.486 L121.125,77.486 L121.125,81.255 Z M117.125,85.255 L142.938,85.255 L142.938,73.486 L117.125,73.486 L117.125,85.255 Z" id="Fill-346" fill="#282D33"></path>
            <path d="M401.375,81.255 L419.188,81.255 L419.188,68.46 L401.375,68.46 L401.375,81.255 Z M397.375,85.255 L423.188,85.255 L423.188,64.46 L397.375,64.46 L397.375,85.255 Z" id="Fill-347" fill="#282D33"></path>
            <path d="M401.375,81.255 L419.188,81.255 L419.188,77.486 L401.375,77.486 L401.375,81.255 Z M397.375,85.255 L423.188,85.255 L423.188,73.486 L397.375,73.486 L397.375,85.255 Z" id="Fill-348" fill="#282D33"></path>
            <polygon id="Fill-349" fill="#282D33" points="409.444 98.657 413.444 98.657 413.444 83.125 409.444 83.125"></polygon>
            <path d="M409.545,114.2 L413.102,114.2 L413.102,101.196 L409.545,101.196 L409.545,114.2 Z M405.545,118.2 L417.102,118.2 L417.102,97.196 L405.545,97.196 L405.545,118.2 Z" id="Fill-350" fill="#282D33"></path>
            <path d="M411.323,132.685 C407.095,132.685 403.655,129.245 403.655,125.017 L407.655,125.017 C407.655,127.039 409.301,128.685 411.323,128.685 C413.346,128.685 414.991,127.039 414.991,125.017 C414.991,122.994 413.346,121.349 411.323,121.349 L411.323,117.349 C415.551,117.349 418.991,120.789 418.991,125.017 C418.991,129.245 415.551,132.685 411.323,132.685" id="Fill-351" fill="#282D33"></path>
            <polyline id="Fill-352" fill="#282D33" points="398.417 153.799 394.886 151.918 409.558 124.375 413.088 124.375 427.76 151.918 424.23 153.799 411.323 129.569 398.417 153.799"></polyline>
            <polyline id="Fill-353" fill="#F9C44F" points="38.526 213.466 79.378 213.466 79.378 231.831 72.114 231.831 72.114 240.425 62.614 231.831 38.526 231.831 38.526 213.466"></polyline>
            <polygon id="Fill-354" fill="#FFFFFF" points="44.483 224.875 72.421 224.875 72.421 220.875 44.483 220.875"></polygon>
            <polygon id="Fill-355" fill="#282D33" points="275.237 151.379 279.237 151.379 279.237 138.714 275.237 138.714"></polygon>
            <polygon id="Fill-356" fill="#282D33" points="270.903 147.048 283.569 147.048 283.569 143.048 270.903 143.048"></polygon>
            <polygon id="Fill-357" fill="#282D33" points="748.34 131.702 752.34 131.702 752.34 117.034 748.34 117.034"></polygon>
            <polygon id="Fill-358" fill="#282D33" points="743.008 126.368 757.674 126.368 757.674 122.368 743.008 122.368"></polygon>
            <path d="M772.587,317.927 C772.587,322.599 768.803,326.382 764.134,326.382 L741.708,326.382 C737.04,326.382 733.255,322.599 733.255,317.927 L733.255,295.503 C733.255,290.833 737.04,287.049 741.708,287.049 L764.134,287.049 C768.803,287.049 772.587,290.833 772.587,295.503 L772.587,317.927" id="Fill-359" fill="#FFFFFF"></path>
            <path d="M741.708,289.049 C738.149,289.049 735.255,291.944 735.255,295.503 L735.255,317.927 C735.255,321.486 738.149,324.382 741.708,324.382 L764.134,324.382 C767.692,324.382 770.587,321.486 770.587,317.927 L770.587,295.503 C770.587,291.944 767.692,289.049 764.134,289.049 L741.708,289.049 Z M764.134,328.382 L741.708,328.382 C735.944,328.382 731.255,323.692 731.255,317.927 L731.255,295.503 C731.255,289.738 735.944,285.049 741.708,285.049 L764.134,285.049 C769.897,285.049 774.587,289.738 774.587,295.503 L774.587,317.927 C774.587,323.692 769.897,328.382 764.134,328.382 L764.134,328.382 Z" id="Fill-360" fill="#282D33"></path>
            <path d="M752.921,310.079 C751.063,310.079 749.557,308.575 749.557,306.716 C749.557,304.856 751.063,303.351 752.921,303.351 C754.777,303.351 756.284,304.856 756.284,306.716 C756.284,308.575 754.777,310.079 752.921,310.079 Z M764.271,309.046 L764.27,304.756 L760.421,303.849 L762.595,300.337 L759.561,297.304 L756.196,299.386 L755.251,295.366 L750.96,295.366 L750.055,299.216 L746.544,297.043 L743.509,300.076 L745.589,303.438 L741.571,304.386 L741.571,308.676 L745.421,309.581 L743.247,313.093 L746.282,316.127 L749.644,314.048 L750.59,318.065 L754.88,318.065 L755.786,314.216 L759.298,316.39 L762.331,313.354 L760.251,309.991 L764.271,309.046 L764.271,309.046 Z" id="Fill-361" fill="#B7BEC0"></path>
            <path d="M397.528,176.434 C397.528,180.813 395.911,184.794 393.276,187.809 L393.276,203.543 L426.23,203.543 L426.23,187.808 C423.596,184.793 421.979,180.813 421.979,176.434 C421.979,172.055 423.596,168.074 426.23,165.061 L426.23,149.326 L393.276,149.326 L393.276,165.058 C395.911,168.072 397.528,172.053 397.528,176.434" id="Fill-362" fill="#B7BEC0"></path>
            <path d="M395.276,201.543 L424.23,201.543 L424.23,188.535 C421.483,185.125 419.979,180.857 419.979,176.434 C419.979,172.009 421.484,167.743 424.23,164.333 L424.23,151.326 L395.276,151.326 L395.276,164.33 C398.024,167.741 399.528,172.009 399.528,176.434 C399.528,180.857 398.024,185.125 395.276,188.536 L395.276,201.543 Z M428.23,205.543 L391.276,205.543 L391.276,187.058 L391.771,186.493 C394.194,183.72 395.528,180.147 395.528,176.434 C395.528,172.719 394.194,169.146 391.771,166.374 L391.276,165.809 L391.276,147.326 L428.23,147.326 L428.23,165.812 L427.736,166.377 C425.313,169.148 423.979,172.719 423.979,176.434 C423.979,180.147 425.313,183.72 427.736,186.492 L428.23,187.057 L428.23,205.543 L428.23,205.543 Z" id="Fill-363" fill="#282D33"></path>
            <path d="M409.752,193.354 C412.394,193.354 414.536,191.212 414.536,188.57 L414.536,149.326 L404.968,149.326 L404.968,188.57 C404.968,191.212 407.11,193.354 409.752,193.354" id="Fill-364" fill="#FFFFFF"></path>
            <path d="M406.968,151.326 L406.968,188.57 C406.968,190.105 408.217,191.354 409.752,191.354 C411.287,191.354 412.536,190.105 412.536,188.57 L412.536,151.326 L406.968,151.326 Z M409.752,195.354 C406.011,195.354 402.968,192.311 402.968,188.57 L402.968,147.326 L416.536,147.326 L416.536,188.57 C416.536,192.311 413.493,195.354 409.752,195.354 L409.752,195.354 Z" id="Fill-365" fill="#282D33"></path>
            <polyline id="Fill-366" fill="#FFFFFF" points="409.886 174.22 403.507 174.22 409.886 174.22"></polyline>
            <polygon id="Fill-367" fill="#282D33" points="403.507 176.22 409.886 176.22 409.886 172.22 403.507 172.22"></polygon>
            <path d="M324.522,202.338 L322.876,200.69 C316.886,194.702 316.886,184.992 322.876,179.001 L323.101,178.774 C329.09,172.786 338.802,172.786 344.791,178.774 L346.437,180.423 L348.084,178.774 C354.073,172.786 363.785,172.786 369.774,178.774 L370.001,179.001 C375.989,184.992 375.989,194.702 370.001,200.69 L368.354,202.338 L346.437,224.256 L324.522,202.338" id="Fill-368" fill="#F9C44F"></path>
            <path d="M367.016,197.259 L364.186,194.432 C366.945,191.671 366.944,187.179 364.185,184.418 L363.977,184.21 C362.627,182.861 360.844,182.119 358.952,182.119 L358.952,178.119 C361.912,178.119 364.7,179.277 366.802,181.379 L367.011,181.586 C371.332,185.91 371.332,192.939 367.016,197.259" id="Fill-369" fill="#FFFFFF"></path>
            <path d="M398.565,315.937 L398.565,325.024 C398.565,325.777 399.798,326.38 401.323,326.382 L420.935,326.379 C422.472,326.382 423.709,325.776 423.708,325.024 L423.708,315.937 L398.565,315.937" id="Fill-370" fill="#FFFFFF"></path>
            <path d="M401.324,328.382 C398.565,328.378 396.565,326.967 396.565,325.024 L396.565,315.937 L400.565,315.937 L400.565,324.296 C400.757,324.343 401.016,324.381 401.326,324.382 L420.934,324.379 C421.26,324.335 421.52,324.34 421.708,324.293 L421.708,315.937 L425.708,315.937 L425.708,325.024 C425.709,325.762 425.401,326.478 424.84,327.038 C423.987,327.891 422.568,328.379 420.946,328.379 L420.931,328.379 L401.324,328.382" id="Fill-371" fill="#282D33"></path>
            <polyline id="Fill-372" fill="#FFFFFF" points="398.472 241.392 398.472 239.685 412.034 220.649 423.802 239.685 423.802 241.393 398.472 241.392"></polyline>
            <polyline id="Fill-373" fill="#282D33" points="425.802 241.393 421.802 241.393 421.802 240.253 411.916 224.262 400.472 240.324 400.472 241.392 396.472 241.392 396.472 239.045 412.152 217.037 425.802 239.116 425.802 241.393"></polyline>
            <polyline id="Fill-374" fill="#F9C44F" points="398.317 314.345 398.319 241.479 423.954 241.479 423.953 314.346 398.317 314.345"></polyline>
            <path d="M425.954,239.479 L396.319,239.479 L396.317,316.345 L425.953,316.346 L425.954,239.479 Z M421.954,243.479 L421.953,312.346 L400.317,312.345 L400.319,243.479 L421.954,243.479 L421.954,243.479 Z" id="Fill-375" fill="#282D33"></path>
            <polygon id="Fill-376" fill="#282D33" points="404.754 314.925 408.754 314.925 408.754 242.78 404.754 242.78"></polygon>
            <polyline id="Fill-377" fill="#282D33" points="413.108 314.926 413.106 242.78 417.106 242.78 417.108 314.926 413.108 314.926"></polyline>
            <polygon id="Fill-378" fill="#282D33" points="408.599 228.302 416.082 228.302 416.082 224.302 408.599 224.302"></polygon>
            <polygon id="Fill-379" fill="#FFFFFF" points="27.327 326.382 74.641 326.382 74.641 317.962 27.327 317.962"></polygon>
            <polyline id="Fill-380" fill="#FFFFFF" points="70.575 317.763 31.394 317.763 42.483 268.043 59.486 268.043 70.575 317.763"></polyline>
            <polyline id="Fill-381" fill="#F9C44F" points="48.067 317.763 67.606 305.673 65.409 296.731 31.421 317.763 48.067 317.763"></polyline>
            <polyline id="Fill-382" fill="#F9C44F" points="34.583 304.778 63.06 287.157 60.862 278.216 37.565 292.632 34.583 304.778"></polyline>
            <path d="M29.327,324.382 L72.641,324.382 L72.641,319.962 L29.327,319.962 L29.327,324.382 Z M25.327,328.382 L76.641,328.382 L76.641,315.962 L25.327,315.962 L25.327,328.382 Z" id="Fill-383" fill="#282D33"></path>
            <path d="M33.889,315.763 L68.08,315.763 L57.883,270.043 L44.086,270.043 L33.889,315.763 Z M73.07,319.763 L28.898,319.763 L40.88,266.043 L61.089,266.043 L73.07,319.763 L73.07,319.763 Z" id="Fill-384" fill="#282D33"></path>
            <polyline id="Fill-385" fill="#FFFFFF" points="45.771 274.571 56.196 274.571 45.771 274.571"></polyline>
            <polygon id="Fill-386" fill="#282D33" points="45.771 276.571 56.196 276.571 56.196 272.571 45.771 272.571"></polygon>
            <polyline id="Fill-387" fill="#FFFFFF" points="634.778 244.997 588.778 324.671 564.53 310.671 610.53 230.997 634.778 244.997"></polyline>
            <path d="M567.262,309.939 L588.046,321.939 L632.046,245.729 L611.263,233.729 L567.262,309.939 Z M589.51,327.403 L561.798,311.403 L609.798,228.266 L637.511,244.266 L589.51,327.403 L589.51,327.403 Z" id="Fill-388" fill="#282D33"></path>
            <polyline id="Fill-389" fill="#B7BEC0" points="572.727 308.476 612.727 239.193 626.582 247.193 586.582 316.476 572.727 308.476"></polyline>
            <polyline id="Fill-390" fill="#282D33" points="594.753 306.823 576.999 296.573 578.999 293.109 596.753 303.359 594.753 306.823"></polyline>
            <polyline id="Fill-391" fill="#282D33" points="603.813 291.129 586.06 280.879 588.06 277.416 605.813 287.666 603.813 291.129"></polyline>
            <polyline id="Fill-392" fill="#282D33" points="612.874 275.435 595.121 265.186 597.121 261.722 614.874 271.971 612.874 275.435"></polyline>
            <polyline id="Fill-393" fill="#282D33" points="621.935 259.742 604.182 249.493 606.182 246.029 623.935 256.278 621.935 259.742"></polyline>
            <polyline id="Fill-394" fill="#282D33" points="580.719 314.629 577.255 312.629 578.984 309.636 582.448 311.636 580.719 314.629"></polyline>
            <polyline id="Fill-395" fill="#FFFFFF" points="661.001 281.487 581.326 327.487 567.326 303.239 647.001 257.239 661.001 281.487"></polyline>
            <path d="M570.058,303.971 L582.058,324.755 L658.269,280.755 L646.269,259.971 L570.058,303.971 Z M580.594,330.219 L564.594,302.507 L647.733,254.507 L663.733,282.219 L580.594,330.219 L580.594,330.219 Z" id="Fill-396" fill="#282D33"></path>
            <polyline id="Fill-397" fill="#F9C44F" points="575.522 305.435 644.805 265.435 652.805 279.292 583.522 319.292 575.522 305.435"></polyline>
            <polyline id="Fill-398" fill="#282D33" points="595.424 315.017 585.174 297.265 588.638 295.265 598.889 313.017 595.424 315.017"></polyline>
            <polyline id="Fill-399" fill="#282D33" points="611.117 305.956 600.867 288.204 604.332 286.204 614.582 303.956 611.117 305.956"></polyline>
            <polyline id="Fill-400" fill="#282D33" points="626.812 296.896 616.562 279.143 620.026 277.143 630.276 294.896 626.812 296.896"></polyline>
            <polyline id="Fill-401" fill="#282D33" points="642.505 287.835 632.255 270.083 635.72 268.083 645.97 285.835 642.505 287.835"></polyline>
            <polyline id="Fill-402" fill="#282D33" points="579.369 314.762 577.367 311.299 580.361 309.568 582.363 313.031 579.369 314.762"></polyline>
            <polygon id="Fill-403" fill="#FFFFFF" points="573.465 326.2 665.465 326.2 665.465 298.2 573.465 298.2"></polygon>
            <path d="M575.465,324.2 L663.465,324.2 L663.465,300.2 L575.465,300.2 L575.465,324.2 Z M571.465,328.2 L667.465,328.2 L667.465,296.2 L571.465,296.2 L571.465,328.2 Z" id="Fill-404" fill="#282D33"></path>
            <polygon id="Fill-405" fill="#282D33" points="591.909 322.45 595.909 322.45 595.909 301.95 591.909 301.95"></polygon>
            <polygon id="Fill-406" fill="#282D33" points="610.03 322.45 614.03 322.45 614.03 301.95 610.03 301.95"></polygon>
            <polygon id="Fill-407" fill="#282D33" points="628.151 322.45 632.151 322.45 632.151 301.95 628.151 301.95"></polygon>
            <polygon id="Fill-408" fill="#282D33" points="646.272 322.45 650.272 322.45 650.272 301.95 646.272 301.95"></polygon>
            <polygon id="Fill-409" fill="#282D33" points="578.132 314.2 581.59 314.2 581.59 310.2 578.132 310.2"></polygon>
            <path d="M545.577,87.698 C543.673,69.157 527.448,54.065 509.367,53.974 C509.358,53.974 509.351,53.97 509.341,53.97 C509.335,53.97 509.328,53.972 509.321,53.972 C509.302,53.972 509.281,53.971 509.261,53.971 C509.252,53.971 509.243,53.97 509.234,53.97 L509.229,53.97 L509.213,53.97 L509.202,53.97 L509.2,53.97 L509.196,53.97 C491.054,53.97 474.739,69.099 472.834,87.641 C470.782,103.136 478.979,120.226 494.765,133.42 C494.791,133.448 494.806,133.481 494.833,133.506 L502.763,140.875 C503.134,141.22 503.62,141.41 504.124,141.41 L514.282,141.41 C514.787,141.41 515.273,141.22 515.644,140.875 L523.011,134.028 C523.049,133.999 523.09,133.977 523.127,133.945 C539.686,119.835 547.656,103.391 545.577,87.698" id="Fill-410" fill="#FFFFFF"></path>
            <path d="M505.843,148.911 C504.932,148.911 504.108,148.284 503.896,147.357 L502.175,139.857 C501.928,138.781 502.6,137.708 503.677,137.461 C504.753,137.214 505.826,137.886 506.073,138.963 L507.794,146.463 C508.041,147.54 507.369,148.612 506.292,148.859 C506.142,148.894 505.991,148.911 505.843,148.911" id="Fill-411" fill="#282D33"></path>
            <path d="M512.276,148.911 C512.128,148.911 511.978,148.894 511.828,148.859 C510.751,148.613 510.078,147.54 510.325,146.463 L512.043,138.963 C512.291,137.887 513.364,137.214 514.44,137.461 C515.517,137.708 516.189,138.78 515.943,139.857 L514.224,147.357 C514.012,148.283 513.188,148.911 512.276,148.911" id="Fill-412" fill="#282D33"></path>
            <polygon id="Fill-413" fill="#F9C44F" points="503.669 154.407 514.735 154.407 514.735 146.157 503.669 146.157"></polygon>
            <path d="M496.318,134.116 C495.869,134.116 495.417,133.966 495.043,133.657 C479.073,120.43 470.771,103.228 472.834,87.641 C474.739,69.1 491.054,53.97 509.195,53.97 L509.203,53.97 C510.307,53.97 511.203,54.866 511.202,55.97 C511.202,57.075 510.307,57.97 509.202,57.97 L509.195,57.97 C493.043,57.97 478.515,71.488 476.807,88.108 C474.918,102.379 482.692,118.233 497.595,130.576 C498.446,131.28 498.564,132.541 497.86,133.392 C497.464,133.87 496.894,134.116 496.318,134.116" id="Fill-414" fill="#282D33"></path>
            <path d="M521.83,134.423 C521.264,134.423 520.702,134.184 520.307,133.72 C519.59,132.879 519.691,131.617 520.532,130.9 C536.023,117.702 543.506,102.525 541.604,88.166 C539.892,71.489 525.359,57.97 509.202,57.97 C508.098,57.97 507.202,57.074 507.202,55.97 C507.202,54.865 508.098,53.97 509.202,53.97 C527.35,53.97 543.667,69.101 545.577,87.699 C547.656,103.392 539.686,119.836 523.126,133.945 C522.75,134.266 522.289,134.423 521.83,134.423" id="Fill-415" fill="#282D33"></path>
            <path d="M499.912,133.837 C499.347,133.837 498.785,133.599 498.389,133.135 C487.072,119.855 481.987,104.512 484.069,89.929 C486.083,75.821 494.626,63.167 508.124,54.299 C509.045,53.69 510.286,53.948 510.893,54.872 C511.5,55.794 511.243,57.035 510.32,57.642 C497.795,65.871 489.879,77.538 488.029,90.495 C486.111,103.925 490.872,118.147 501.433,130.54 C502.15,131.38 502.049,132.643 501.208,133.359 C500.832,133.68 500.371,133.837 499.912,133.837" id="Fill-416" fill="#282D33"></path>
            <path d="M512.354,133.544 C512.177,133.544 511.998,133.521 511.82,133.472 C510.755,133.177 510.13,132.076 510.425,131.011 C516.78,108.018 516.383,84.848 509.257,62.054 C501.655,84.802 501.224,107.939 507.988,130.915 C508.3,131.974 507.694,133.086 506.634,133.398 C505.576,133.711 504.463,133.104 504.151,132.044 C496.601,106.397 497.711,80.56 507.453,55.252 C507.753,54.472 508.489,53.951 509.341,53.97 C510.176,53.979 510.917,54.506 511.201,55.292 C520.327,80.616 521.363,106.45 514.28,132.077 C514.035,132.963 513.23,133.544 512.354,133.544" id="Fill-417" fill="#282D33"></path>
            <path d="M518.477,133.771 C518.022,133.771 517.566,133.617 517.191,133.302 C516.345,132.591 516.236,131.33 516.946,130.484 C527.491,117.931 532.052,104.123 530.135,90.553 C528.31,77.637 520.487,65.944 508.106,57.63 C507.189,57.014 506.945,55.771 507.562,54.854 C508.177,53.938 509.419,53.693 510.337,54.31 C523.672,63.266 532.109,75.938 534.095,89.994 C536.146,104.509 531.144,119.802 520.009,133.058 C519.613,133.528 519.047,133.771 518.477,133.771" id="Fill-418" fill="#282D33"></path>
            <path d="M504.91,137.41 L513.496,137.41 L517.121,134.041 L501.285,134.041 L504.91,137.41 Z M514.282,141.41 L504.124,141.41 C503.619,141.41 503.132,141.219 502.763,140.875 L494.833,133.506 C494.23,132.946 494.032,132.075 494.333,131.31 C494.634,130.544 495.372,130.041 496.194,130.041 L522.21,130.041 C523.032,130.041 523.771,130.544 524.071,131.31 C524.372,132.075 524.174,132.946 523.572,133.506 L515.644,140.875 C515.274,141.219 514.788,141.41 514.282,141.41 L514.282,141.41 Z" id="Fill-419" fill="#282D33"></path>
            <path d="M491.599,91.639 C491.63,91.419 491.665,91.2 491.665,90.972 C491.665,88.395 489.577,86.305 486.999,86.305 C486.489,86.305 486.009,86.407 485.55,86.558 C484.864,81.892 480.854,78.306 475.999,78.306 C475.286,78.306 474.593,78.388 473.923,78.534 C471.759,76.147 468.642,74.639 465.167,74.639 C459.608,74.639 454.96,78.476 453.688,83.64 C453.681,83.64 453.673,83.638 453.665,83.638 C449.8,83.638 446.665,86.772 446.665,90.638 C446.665,90.979 446.698,91.312 446.745,91.639 L491.599,91.639" id="Fill-420" fill="#5EB4E7"></path>
            <path d="M556.097,138.472 L598.024,138.472 C598.026,138.434 598.032,138.397 598.032,138.358 C598.032,133.702 594.259,129.927 589.603,129.927 C588.813,129.927 588.05,130.044 587.323,130.247 C586.497,124.22 581.33,119.571 575.071,119.571 C568.239,119.571 562.7,125.111 562.7,131.94 C562.7,131.968 562.701,131.995 562.701,132.022 C559.286,132.412 556.569,135.081 556.097,138.472" id="Fill-421" fill="#FFFFFF"></path>
            <polyline id="Fill-422" fill="#282D33" points="166.779 327.308 134.54 271.47 102.301 327.308 98.837 325.308 134.54 263.47 170.243 325.308 166.779 327.308"></polyline>
            <polygon id="Fill-423" fill="#282D33" points="132.54 326.382 136.54 326.382 136.54 225.05 132.54 225.05"></polygon>
            <polygon id="Fill-424" fill="#B7BEC0" points="91.571 306.714 177.509 306.714 177.509 239.624 91.571 239.624"></polygon>
            <polyline id="Fill-425" fill="#FFFFFF" points="124.009 245.624 171.509 245.624 171.509 300.714 97.571 300.714 97.571 245.624 124.009 245.624"></polyline>
            <path d="M99.571,298.714 L169.509,298.714 L169.509,247.624 L99.571,247.624 L99.571,298.714 Z M95.571,302.714 L173.509,302.714 L173.509,243.624 L95.571,243.624 L95.571,302.714 Z" id="Fill-426" fill="#282D33"></path>
            <polyline id="Fill-427" fill="#5EB4E7" points="104.021 252.073 104.021 276.765 115.31 261.739 126.394 276.499 133.563 266.95 142.69 279.104 144.696 281.772 165.058 281.772 165.058 252.073 104.021 252.073"></polyline>
            <path d="M155.925,263.384 C155.925,266.267 153.589,268.603 150.706,268.603 C147.823,268.603 145.487,266.267 145.487,263.384 C145.487,260.502 147.823,258.161 150.706,258.161 C153.589,258.161 155.925,260.502 155.925,263.384" id="Fill-428" fill="#FFFFFF"></path>
            <path d="M124.873,243.216 L144.206,243.216 L144.206,240.216 L124.873,240.216 L124.873,243.216 Z M120.873,247.216 L148.206,247.216 L148.206,236.216 L120.873,236.216 L120.873,247.216 Z" id="Fill-429" fill="#282D33"></path>
            <polyline id="Fill-430" fill="#F9C44F" points="256.517 310.638 237.241 310.638 237.241 326.382 333.812 326.382 333.812 310.638 256.517 310.638"></polyline>
            <path d="M239.241,324.382 L331.812,324.382 L331.812,312.638 L239.241,312.638 L239.241,324.382 Z M235.241,328.382 L335.812,328.382 L335.812,308.638 L235.241,308.638 L235.241,328.382 Z" id="Fill-431" fill="#282D33"></path>
            <polygon id="Fill-432" fill="#282D33" points="244.497 317.794 248.497 317.794 248.497 311.593 244.497 311.593"></polygon>
            <polygon id="Fill-433" fill="#282D33" points="251.059 314.931 255.059 314.931 255.059 311.593 251.059 311.593"></polygon>
            <polygon id="Fill-434" fill="#282D33" points="257.618 317.794 261.618 317.794 261.618 311.593 257.618 311.593"></polygon>
            <polygon id="Fill-435" fill="#282D33" points="264.179 314.931 268.179 314.931 268.179 311.593 264.179 311.593"></polygon>
            <polygon id="Fill-436" fill="#282D33" points="270.739 317.794 274.739 317.794 274.739 311.593 270.739 311.593"></polygon>
            <polygon id="Fill-437" fill="#282D33" points="277.299 314.931 281.299 314.931 281.299 311.593 277.299 311.593"></polygon>
            <polygon id="Fill-438" fill="#282D33" points="283.86 317.794 287.86 317.794 287.86 311.593 283.86 311.593"></polygon>
            <polygon id="Fill-439" fill="#282D33" points="290.421 314.931 294.421 314.931 294.421 311.593 290.421 311.593"></polygon>
            <polygon id="Fill-440" fill="#282D33" points="296.979 317.794 300.979 317.794 300.979 311.593 296.979 311.593"></polygon>
            <polygon id="Fill-441" fill="#282D33" points="303.542 314.931 307.542 314.931 307.542 311.593 303.542 311.593"></polygon>
            <polygon id="Fill-442" fill="#282D33" points="310.103 317.794 314.103 317.794 314.103 311.593 310.103 311.593"></polygon>
            <polygon id="Fill-443" fill="#282D33" points="316.662 314.931 320.662 314.931 320.662 311.593 316.662 311.593"></polygon>
            <polygon id="Fill-444" fill="#282D33" points="323.223 317.794 327.223 317.794 327.223 311.593 323.223 311.593"></polygon>
            <polygon id="Fill-445" fill="#282D33" points="307.313 237.784 311.313 237.784 311.313 233.661 307.313 233.661"></polygon>
            <polyline id="Fill-446" fill="#282D33" points="301.82 243.056 298.25 240.995 300.25 237.531 303.82 239.593 301.82 243.056"></polyline>
            <polyline id="Fill-447" fill="#282D33" points="300.069 252.509 298.069 249.045 301.641 246.984 303.641 250.448 300.069 252.509"></polyline>
            <polyline id="Fill-448" fill="#282D33" points="310.95 256.691 306.95 256.69 306.951 252.567 310.951 252.568 310.95 256.691"></polyline>
            <polyline id="Fill-449" fill="#282D33" points="318.012 252.822 314.443 250.76 316.444 247.296 320.013 249.358 318.012 252.822"></polyline>
            <polyline id="Fill-450" fill="#282D33" points="316.622 243.368 314.624 239.903 318.194 237.845 320.192 241.31 316.622 243.368"></polyline>
            <polygon id="Fill-451" fill="#FFFFFF" points="287.349 326.382 387.041 326.382 387.041 264.973 287.349 264.973"></polygon>
            <path d="M289.349,324.382 L385.041,324.382 L385.041,266.973 L289.349,266.973 L289.349,324.382 Z M285.349,328.382 L389.041,328.382 L389.041,262.973 L285.349,262.973 L285.349,328.382 Z" id="Fill-452" fill="#282D33"></path>
            <polygon id="Fill-453" fill="#B7BEC0" points="293.839 319.893 380.552 319.893 380.552 271.464 293.839 271.464"></polygon>
            <polyline id="Fill-454" fill="#282D33" points="352.558 260.502 348.558 260.502 348.558 256.386 328.716 256.386 328.716 260.502 324.716 260.502 324.716 252.386 352.558 252.386 352.558 260.502"></polyline>
            <polygon id="Fill-455" fill="#282D33" points="363.938 259.86 381.245 259.86 381.245 255.86 363.938 255.86"></polygon>
            <path d="M362.368,299.611 C362.368,313.812 350.856,325.325 336.655,325.325 C322.454,325.325 310.942,313.812 310.942,299.611 C310.942,285.411 322.454,273.897 336.655,273.897 C350.856,273.897 362.368,285.411 362.368,299.611" id="Fill-456" fill="#FFFFFF"></path>
            <path d="M336.655,275.897 C323.58,275.897 312.942,286.536 312.942,299.611 C312.942,312.687 323.58,323.325 336.655,323.325 C349.73,323.325 360.368,312.687 360.368,299.611 C360.368,286.536 349.73,275.897 336.655,275.897 Z M336.655,327.325 C321.375,327.325 308.942,314.893 308.942,299.611 C308.942,284.33 321.375,271.897 336.655,271.897 C351.936,271.897 364.368,284.33 364.368,299.611 C364.368,314.893 351.936,327.325 336.655,327.325 L336.655,327.325 Z" id="Fill-457" fill="#282D33"></path>
            <path d="M336.655,283.421 C334.485,283.421 332.421,283.856 330.529,284.629 C332.122,285.783 333.164,287.653 333.164,289.771 C333.164,293.277 330.32,296.12 326.814,296.12 C324.698,296.12 322.827,295.079 321.673,293.485 C320.9,295.377 320.465,297.442 320.465,299.611 C320.465,308.553 327.714,315.802 336.655,315.802 C345.597,315.802 352.845,308.553 352.845,299.611 C352.845,290.67 345.597,283.421 336.655,283.421" id="Fill-458" fill="#F9C44F"></path>
            <path d="M322.703,297.029 C322.544,297.878 322.465,298.741 322.465,299.611 C322.465,307.436 328.831,313.802 336.655,313.802 C344.479,313.802 350.845,307.436 350.845,299.611 C350.845,291.787 344.479,285.421 336.655,285.421 C335.785,285.421 334.922,285.5 334.073,285.659 C334.777,286.899 335.164,288.315 335.164,289.771 C335.164,294.375 331.418,298.12 326.814,298.12 C325.358,298.12 323.943,297.733 322.703,297.029 Z M336.655,317.802 C326.625,317.802 318.465,309.642 318.465,299.611 C318.465,297.249 318.921,294.934 319.821,292.729 L321.182,289.397 L323.292,292.312 C324.113,293.444 325.429,294.12 326.814,294.12 C329.213,294.12 331.164,292.169 331.164,289.771 C331.164,288.365 330.505,287.081 329.355,286.249 L326.443,284.137 L329.773,282.777 C331.977,281.877 334.293,281.421 336.655,281.421 C346.685,281.421 354.845,289.581 354.845,299.611 C354.845,309.642 346.685,317.802 336.655,317.802 L336.655,317.802 Z" id="Fill-459" fill="#282D33"></path>
            <path d="M651.433,146.687 L671.351,146.687 C671.488,144.803 671.911,142.353 673.099,140.774 C680.446,131.312 680.917,122.296 680.917,121.659 C680.917,110.88 672.185,102.151 661.407,102.151 C650.629,102.151 641.899,110.88 641.899,121.659 C641.899,122.296 642.357,131.306 649.715,140.774 C650.897,142.353 651.307,144.803 651.433,146.687" id="Fill-460" fill="#F9C44F"></path>
            <polyline id="Fill-461" fill="#282D33" points="654.253 146.986 650.39 125.547 654.327 124.838 658.19 146.277 654.253 146.986"></polyline>
            <polyline id="Fill-462" fill="#282D33" points="668.565 146.988 664.628 146.279 668.489 124.838 672.427 125.547 668.565 146.988"></polyline>
            <polyline id="Fill-463" fill="#282D33" points="668.471 129.96 666.242 129.96 664.377 128.709 662.515 129.96 660.283 129.96 658.425 128.71 656.566 129.96 654.334 129.959 651.362 127.959 653.595 124.641 655.451 125.889 657.309 124.64 659.541 124.64 661.399 125.89 663.261 124.64 665.49 124.639 667.356 125.892 669.223 124.639 671.451 127.96 668.471 129.96"></polyline>
            <polygon id="Fill-464" fill="#282D33" points="650.143 148.916 672.675 148.916 672.675 144.916 650.143 144.916"></polygon>
            <polygon id="Fill-465" fill="#282D33" points="650.143 154.845 672.675 154.845 672.675 150.845 650.143 150.845"></polygon>
            <polygon id="Fill-466" fill="#282D33" points="654.04 160.774 668.775 160.774 668.775 156.774 654.04 156.774"></polygon>
            <polygon id="Fill-467" fill="#282D33" points="653.668 152.354 657.668 152.354 657.668 147.179 653.668 147.179"></polygon>
            <polyline id="Fill-468" fill="#282D33" points="544.107 326.134 519.863 289.779 495.618 326.134 492.29 323.915 518.199 285.065 521.527 285.065 547.436 323.915 544.107 326.134"></polyline>
            <polygon id="Fill-469" fill="#282D33" points="517.863 324.772 521.863 324.772 521.863 287.085 517.863 287.085"></polygon>
            <path d="M519.605,287.177 C518.452,287.177 517.308,286.899 516.256,286.35 C514.54,285.452 513.275,283.94 512.696,282.093 L516.513,280.896 C516.772,281.725 517.339,282.402 518.108,282.804 C518.877,283.207 519.758,283.284 520.586,283.025 C522.295,282.489 523.25,280.661 522.715,278.951 L526.531,277.754 C527.727,281.568 525.597,285.645 521.784,286.842 C521.068,287.066 520.334,287.177 519.605,287.177" id="Fill-470" fill="#282D33"></path>
            <polyline id="Fill-471" fill="#FFFFFF" points="558.833 264.42 494.726 288.554 488.413 271.786 552.521 247.652 558.833 264.42"></polyline>
            <path d="M490.99,272.953 L495.893,285.978 L556.257,263.253 L551.354,250.229 L490.99,272.953 Z M493.559,291.13 L485.836,270.619 L553.688,245.076 L561.409,265.587 L493.559,291.13 L493.559,291.13 Z" id="Fill-472" fill="#282D33"></path>
            <polyline id="Fill-473" fill="#FFFFFF" points="559.465 266.097 569.759 262.222 562.185 242.099 551.89 245.977 559.465 266.097"></polyline>
            <path d="M554.466,247.144 L560.632,263.521 L567.183,261.055 L561.018,244.675 L554.466,247.144 Z M558.298,268.673 L549.313,244.81 L563.352,239.522 L572.335,263.389 L558.298,268.673 L558.298,268.673 Z" id="Fill-474" fill="#282D33"></path>
            <polyline id="Fill-475" fill="#FFFFFF" points="476.148 291.718 493.463 285.2 489.676 275.138 472.361 281.657 476.148 291.718"></polyline>
            <path d="M474.938,282.824 L477.315,289.142 L490.887,284.033 L488.508,277.714 L474.938,282.824 Z M474.981,294.294 L469.785,280.49 L490.843,272.561 L496.039,286.368 L474.981,294.294 L474.981,294.294 Z" id="Fill-476" fill="#282D33"></path>
            <polyline id="Fill-477" fill="#FFFFFF" points="514.24 274.108 562.438 255.964 514.24 274.108"></polyline>
            <polyline id="Fill-478" fill="#282D33" points="514.945 275.98 513.536 272.237 561.733 254.093 563.142 257.835 514.945 275.98"></polyline>
            <polygon id="Fill-479" fill="#FFFFFF" points="533.435 179.875 537.421 179.875 537.421 175.875 533.435 175.875"></polygon>
            <polygon id="Fill-480" fill="#FFFFFF" points="466.435 171.875 470.421 171.875 470.421 167.875 466.435 167.875"></polygon>
            <polygon id="Fill-481" fill="#FFFFFF" points="570.769 213.208 574.755 213.208 574.755 209.208 570.769 209.208"></polygon>
            <polygon id="Fill-482" fill="#FFFFFF" points="593.435 166.875 597.421 166.875 597.421 162.875 593.435 162.875"></polygon>
            <polygon id="Fill-483" fill="#FFFFFF" points="626.421 214.875 630.407 214.875 630.407 210.875 626.421 210.875"></polygon>
            <polygon id="Fill-484" fill="#FFFFFF" points="559.435 287.875 563.421 287.875 563.421 283.875 559.435 283.875"></polygon>
            <path d="M517.421,205.875 C508.313,205.875 500.93,198.491 500.93,189.384 C500.93,181.831 506.015,175.478 512.944,173.524 C512.163,173.446 511.372,173.401 510.571,173.401 C497.96,173.401 487.737,183.624 487.737,196.233 C487.737,208.845 497.96,219.067 510.571,219.067 C523.181,219.067 533.403,208.845 533.403,196.233 C533.403,195.434 533.36,194.64 533.28,193.861 C531.327,200.79 524.976,205.875 517.421,205.875" id="Fill-485" fill="#FFFFFF"></path>
            <path d="M625.344,22.968 L615.102,33.207 C609.938,38.642 606.757,42.771 606.76,49.468 C606.76,60.548 615.74,69.527 626.82,69.527 C633.516,69.527 638.307,66.194 643.076,61.185 L653.318,50.942 L625.344,22.968" id="Fill-486" fill="#FFFFFF"></path>
            <path d="M625.344,25.796 L616.516,34.622 C611.161,40.257 608.757,43.752 608.76,49.467 C608.76,59.426 616.861,67.527 626.82,67.527 C632.116,67.527 636.406,65.29 641.628,59.806 L650.49,50.942 L625.344,25.796 Z M626.82,71.527 C614.656,71.527 604.76,61.631 604.76,49.468 C604.757,41.801 608.611,37.134 613.651,31.83 L625.344,20.14 L656.146,50.942 L644.49,62.599 C640.305,66.996 634.901,71.527 626.82,71.527 L626.82,71.527 Z" id="Fill-487" fill="#282D33"></path>
            <path d="M619.607,56.916 C611.538,53.503 606.324,45.636 606.324,36.874 C606.324,24.881 616.082,15.125 628.076,15.125 C631.299,15.125 634.403,15.814 637.305,17.172 L635.609,20.795 C633.242,19.687 630.708,19.125 628.076,19.125 C618.288,19.125 610.324,27.087 610.324,36.874 C610.324,44.025 614.58,50.446 621.166,53.232 L619.607,56.916" id="Fill-488" fill="#282D33"></path>
            <path d="M658.256,37.826 C658.256,48.772 649.383,57.645 638.438,57.645 C627.494,57.645 618.62,48.771 618.619,37.826 C618.62,26.882 627.492,18.008 638.438,18.008 C649.383,18.008 658.256,26.882 658.256,37.826" id="Fill-489" fill="#FFFFFF"></path>
            <path d="M638.438,20.008 C628.613,20.008 620.62,28.001 620.619,37.826 C620.62,47.651 628.613,55.645 638.438,55.645 C648.263,55.645 656.256,47.651 656.256,37.826 C656.256,28.001 648.263,20.008 638.438,20.008 Z M638.438,59.645 C626.408,59.645 616.62,49.857 616.619,37.826 C616.62,25.795 626.408,16.008 638.438,16.008 C650.468,16.008 660.256,25.795 660.256,37.826 C660.256,49.857 650.468,59.645 638.438,59.645 L638.438,59.645 Z" id="Fill-490" fill="#282D33"></path>
            <path d="M666.662,64.813 C666.662,67.518 668.854,69.711 671.56,69.711 C674.264,69.711 676.459,67.518 676.459,64.813 C676.459,62.106 674.264,59.915 671.56,59.915 C668.854,59.915 666.662,62.106 666.662,64.813" id="Fill-491" fill="#F9C44F"></path>
            <path d="M683.801,66.813 C683.801,68.614 685.259,70.073 687.061,70.073 C688.86,70.073 690.32,68.614 690.32,66.813 C690.32,65.012 688.86,63.552 687.061,63.552 C685.259,63.552 683.801,65.012 683.801,66.813" id="Fill-492" fill="#F9C44F"></path>
            <path d="M640.561,92.313 C640.561,94.652 642.455,96.55 644.796,96.55 C647.133,96.55 649.03,94.652 649.03,92.313 C649.03,89.974 647.133,88.078 644.796,88.078 C642.455,88.078 640.561,89.974 640.561,92.313" id="Fill-493" fill="#F9C44F"></path>
            <path d="M680.555,76.62 C678.431,75.915 676.235,76.063 674.326,76.871 C669.621,78.945 666.412,82.583 664.942,87.298 C664.085,90.052 664.221,92.824 665.127,95.35 C665.971,92.599 667.59,90.276 669.674,88.549 C670.643,90.761 672.5,92.573 674.973,93.396 C679.604,94.937 684.609,92.433 686.152,87.798 C687.694,83.165 685.186,78.159 680.555,76.62" id="Fill-494" fill="#F9C44F"></path>
            <path d="M636.209,56.815 C646.926,56.815 655.612,65.503 655.612,76.22 L655.612,105.083 L662.201,105.083 L662.201,52.639 C662.201,49.574 659.701,43.948 659.783,43.688 C654.53,36.948 644.988,32.44 634.085,32.44 C629.514,32.44 625.184,33.237 621.305,34.655 C621.139,35.689 621.027,36.745 621.027,37.826 C621.029,46.539 626.66,53.923 634.473,56.578 C634.473,56.578 635.623,56.815 636.209,56.815" id="Fill-495" fill="#F9C44F"></path>
            <path d="M652.441,106.52 C652.441,102.801 659.173,90.813 659.173,90.813 C659.172,90.562 665.905,102.801 665.906,106.52 C665.905,110.237 662.893,113.252 659.174,113.252 C655.455,113.252 652.441,110.237 652.441,106.52" id="Fill-496" fill="#F9C44F"></path>
            <path d="M329.847,192.069 C327.015,192.069 325.733,189.736 324.797,188.032 C324.186,186.92 323.684,186.069 323.253,186.069 C322.822,186.069 322.321,186.92 321.71,188.032 C320.774,189.736 319.492,192.069 316.66,192.069 C313.828,192.069 312.546,189.736 311.609,188.032 C310.998,186.92 310.497,186.069 310.065,186.069 C309.634,186.069 309.132,186.92 308.521,188.033 C307.585,189.736 306.304,192.069 303.474,192.069 C300.641,192.069 299.359,189.736 298.422,188.032 C297.811,186.92 297.309,186.069 296.877,186.069 C296.443,186.069 295.94,186.921 295.328,188.034 C294.39,189.737 293.107,192.069 290.274,192.069 C287.441,192.069 286.158,189.737 285.22,188.034 C284.608,186.92 284.105,186.069 283.671,186.069 L283.671,182.069 C286.504,182.069 287.788,184.402 288.725,186.105 C289.337,187.218 289.84,188.069 290.274,188.069 C290.708,188.069 291.21,187.218 291.823,186.105 C292.76,184.402 294.043,182.069 296.877,182.069 C299.708,182.069 300.991,184.402 301.927,186.105 C302.539,187.218 303.042,188.069 303.474,188.069 C303.903,188.069 304.405,187.219 305.016,186.107 C305.952,184.403 307.233,182.069 310.065,182.069 C312.897,182.069 314.179,184.402 315.115,186.106 C315.727,187.218 316.229,188.069 316.66,188.069 C317.091,188.069 317.593,187.218 318.204,186.106 C319.14,184.402 320.422,182.069 323.253,182.069 C326.084,182.069 327.367,184.402 328.303,186.106 C328.914,187.218 329.416,188.069 329.847,188.069 L329.847,192.069" id="Fill-497" fill="#282D33"></path>
            <path d="M302.847,211.069 C300.015,211.069 298.733,208.736 297.797,207.032 C297.186,205.92 296.684,205.069 296.253,205.069 C295.822,205.069 295.321,205.92 294.71,207.032 C293.774,208.736 292.492,211.069 289.66,211.069 C286.828,211.069 285.546,208.736 284.609,207.032 C283.998,205.92 283.497,205.069 283.065,205.069 C282.634,205.069 282.132,205.92 281.521,207.033 C280.585,208.736 279.304,211.069 276.474,211.069 C273.641,211.069 272.359,208.736 271.422,207.032 C270.811,205.92 270.309,205.069 269.877,205.069 C269.443,205.069 268.94,205.921 268.328,207.034 C267.39,208.737 266.107,211.069 263.274,211.069 C260.441,211.069 259.158,208.737 258.22,207.034 C257.608,205.92 257.105,205.069 256.671,205.069 L256.671,201.069 C259.504,201.069 260.788,203.402 261.725,205.105 C262.337,206.218 262.84,207.069 263.274,207.069 C263.708,207.069 264.21,206.218 264.823,205.105 C265.76,203.402 267.043,201.069 269.877,201.069 C272.708,201.069 273.991,203.402 274.927,205.105 C275.539,206.218 276.042,207.069 276.474,207.069 C276.903,207.069 277.405,206.219 278.016,205.107 C278.952,203.403 280.233,201.069 283.065,201.069 C285.897,201.069 287.179,203.402 288.115,205.106 C288.727,206.218 289.229,207.069 289.66,207.069 C290.091,207.069 290.593,206.218 291.204,205.106 C292.14,203.402 293.422,201.069 296.253,201.069 C299.084,201.069 300.367,203.402 301.303,205.106 C301.914,206.218 302.416,207.069 302.847,207.069 L302.847,211.069" id="Fill-498" fill="#282D33"></path>
        </g>
    </g>
</svg>